<?xml version="1.0" encoding="UTF-8" standalone="no"?>
<!DOCTYPE svg PUBLIC "-//W3C//DTD SVG 1.1//EN" "http://www.w3.org/Graphics/SVG/1.1/DTD/svg11.dtd">
<svg width="100%" height="100%" viewBox="0 0 250 302" version="1.1" xmlns="http://www.w3.org/2000/svg" xmlns:xlink="http://www.w3.org/1999/xlink" xml:space="preserve" xmlns:serif="http://www.serif.com/" style="fill-rule:evenodd;clip-rule:evenodd;stroke-linejoin:round;stroke-miterlimit:2;">
    <g id="Layer-1" serif:id="Layer 1" transform="matrix(2.834646,0,0,2.834646,-8.265941,-5.472821)">
        <g id="g2864" transform="matrix(0.45736,0,0,0.45736,24.91995,6.579545)">
            <g id="path2423" transform="matrix(0.264583,0,0,0.264583,0,0)">
                <path d="M323.758,-38.398C323.513,-38.425 323.276,-38.425 323.045,-38.391C322.772,-38.352 322.506,-38.263 322.242,-38.152C321.524,-38.013 320.868,-37.69 320.277,-37.156C318.036,-35.128 316.834,-31.484 315.699,-22.016C315.688,-21.926 315.679,-21.848 315.668,-21.754C315.343,-19.013 315.023,-15.869 314.686,-12.053C314.381,-8.61 314.233,3.476 314.211,18.369C314.132,26.895 314.165,36.081 314.303,45.699C314.44,64.726 314.721,83.294 315.131,92.447C315.472,100.052 315.869,107.601 316.303,115.027C316.437,117.73 316.578,120.226 316.727,122.447C316.797,123.498 316.885,124.601 316.959,125.666C319.626,166.754 323.47,201.832 326.734,212.598C326.75,212.652 326.756,212.693 326.768,212.744C326.802,212.989 326.842,213.246 326.861,213.418C326.774,214.028 325.917,213.959 323.447,213.414C305.812,209.522 266.44,209.564 232.16,213.514C207.06,216.405 169.562,225.667 156.811,232.125L155.678,232.699C154.531,233.143 153.535,233.497 152.813,233.691C151.926,233.867 151.268,233.881 150.725,233.762L148.182,232.08C142.012,227.997 129.722,221.319 116.748,214.787C115.295,214.033 113.864,213.295 112.59,212.656C108.138,210.425 103.5,208.219 98.715,206.047C94.381,204.033 90.196,202.139 86.527,200.59C30.869,177.08 -36.883,160.037 -93.197,155.379C-99.522,154.856 -107.294,154.604 -114.935,154.558C-116.914,154.499 -118.754,154.465 -120.338,154.467C-123.217,154.47 -125.94,154.56 -128.555,154.691C-130.31,154.743 -131.976,154.811 -133.519,154.908C-139.979,155.237 -144.835,155.772 -146.244,156.482C-147.197,156.962 -147.976,157.428 -148.607,157.902C-150.097,158.773 -150.838,159.816 -150.838,161.039C-150.838,161.554 -150.65,162.211 -150.312,162.976C-150.107,163.641 -149.795,164.37 -149.379,165.182C-148.411,167.07 -145.128,170.877 -140.92,175.248C-137.585,178.808 -133.663,182.626 -129.486,186.328C-125.694,189.782 -121.988,192.959 -119.035,195.146C-109.544,202.175 -90.072,215.447 -89.25,215.447C-88.917,215.447 -87.285,216.416 -85.623,217.599C-82.013,220.17 -74.117,224.744 -64.178,230.174C-61.638,231.711 -55.822,234.793 -48.627,238.492C-27.236,249.72 -2.163,262.128 12.662,268.496C17.389,270.526 22.399,272.618 27.469,274.713C30.351,275.95 34.106,277.486 38.617,279.264C59.581,287.714 80.025,295.399 88.5,297.859C91.669,298.779 93.126,299.365 93.602,300.06C93.54,300.64 93.391,301.531 93.158,302.687C89.068,314.574 84.221,346.028 84.18,361.697C84.177,362.567 84.149,363.389 84.108,364.154C84.063,364.591 84.029,364.869 83.988,365.246C83.708,366.924 83.386,367.919 83.01,368.279C82.402,368.115 81.272,367.701 79.813,367.121C77.964,366.334 75.566,365.269 73.025,364.09C67.862,361.693 62.518,359.38 61.15,358.951C59.783,358.522 56.414,357.152 53.664,355.906C47.291,353.019 36.117,348.829 19.664,343.156C-25.631,327.538 -77.879,315.372 -122.836,309.973C-128.046,309.347 -136.192,308.68 -144.689,308.099C-151.28,307.57 -157.78,307.166 -164.152,306.91C-167.159,306.789 -169.526,306.719 -171.607,306.682C-176.318,306.54 -179.638,306.542 -180.226,306.767C-180.932,307.038 -181.386,307.585 -181.594,308.49C-181.772,308.908 -181.836,309.405 -181.836,310C-181.836,310.011 -181.834,310.034 -181.834,310.045C-181.834,310.06 -181.836,310.075 -181.836,310.09C-181.836,310.515 -181.692,311.265 -181.486,312.158C-181.021,314.899 -179.869,318.852 -177.961,324.494C-170.094,347.749 -157.652,377.955 -144.615,406.414L-144.615,406.416C-144.13,407.616 -142.806,410.461 -141.092,414.053C-130.144,437.489 -119.026,459.154 -110.051,473.947C-106.828,479.259 -105.15,482.375 -103.34,484.166C-102.942,484.703 -102.637,485.068 -102.478,485.166C-102.433,485.192 -102.236,485.223 -101.973,485.252C-99.251,486.897 -95.507,486.398 -86.336,485.982C-84.886,485.916 -82.686,485.878 -80.012,485.861C-74.751,485.936 -69.071,486 -62.891,486.037C-57.371,486.071 -52.058,486.133 -46.844,486.207C-26.076,486.605 -3.859,487.271 3.664,487.881C5.864,488.059 12.052,488.527 17.414,488.92C18.683,489.013 19.882,489.118 20.996,489.23C24.213,489.646 26.285,490.086 26.922,490.539C26.907,490.916 26.799,491.592 26.625,492.459C26.35,493.454 26,494.659 25.604,495.947C17.119,523.5 -1.836,589.766 -1.836,591.875C-1.836,592.067 -1.802,592.254 -1.754,592.439C-1.78,592.579 -1.836,592.817 -1.836,592.869C-1.836,593.125 -1.447,593.483 -0.678,593.943C1.292,595.598 6.203,597.593 17.164,601.488C35.376,607.96 58.364,616.533 63.854,618.869C64.037,618.97 64.242,619.073 64.412,619.174C65.633,619.893 66.507,620.73 67.377,622.285C67.686,622.895 67.962,623.544 68.16,624.189C68.795,626.256 70.233,630.312 71.358,633.203C71.485,633.53 71.585,633.807 71.695,634.101C72.384,636.393 72.737,637.936 72.805,639.121C72.741,639.842 72.543,640.531 72.205,641.347C71.147,643.902 70.354,644.318 65.338,644.943C62.209,645.333 58.888,646.202 55.658,647.379C53.584,648.053 51.586,648.919 49.656,649.984C44.274,652.72 39.771,656.165 37.817,659.461C36.394,660.685 35.207,661.546 34.592,661.75C33.783,660.87 32.499,659.197 31.164,657.226C29.573,654.877 25.737,650.362 21.932,646.275C21.426,645.727 20.921,645.192 20.416,644.67C20.129,644.371 19.833,644.04 19.551,643.752C12.574,636.609 11.046,635.49 8.102,635.455C8.087,635.454 8.063,635.447 8.049,635.447C8.034,635.447 8.015,635.449 8,635.449C7.985,635.449 7.974,635.447 7.957,635.447C7.916,635.447 7.877,635.451 7.836,635.451C7.821,635.45 7.806,635.447 7.791,635.447C7.722,635.447 7.653,635.459 7.584,635.462C3.535,635.602 1.274,638.006 0.455,643.05C0.161,644.861 -0.653,646.884 -1.475,647.959C-1.757,648.175 -2.035,648.479 -2.305,648.857C-4.159,650.918 -5.254,655.118 -5.625,660.878C-5.748,662.211 -5.836,663.558 -5.836,664.9C-5.836,666.701 -5.75,668.669 -5.623,670.712C-5.004,683.582 -2.148,700.446 2.76,717.949C4.148,722.899 5.915,729.265 6.686,732.097C8.933,740.353 12.966,751.479 17.551,762.584C18.84,766.187 21.343,771.87 24.322,778.06C27.942,785.869 31.547,792.916 34.621,797.949C43.856,813.066 51.338,821.309 58.832,824.625C63.912,826.871 67.115,826.498 70.328,823.285L72.44,821.173L79.053,823.332C79.208,823.382 79.41,823.436 79.572,823.488C81.937,824.427 84.435,825.126 87.561,825.63C89.079,825.979 90.529,826.291 91.664,826.478C99.314,827.738 134.014,827.714 149.664,826.439C156.264,825.901 167.144,825.166 173.84,824.804L186.016,824.148L185.455,828.32C185.142,830.655 185.396,832.485 186.145,833.812C186.989,835.453 188.579,836.29 190.863,836.318C193.079,836.405 195.901,835.757 199.277,834.304L204.26,832.162L207.522,835.72C208.106,836.573 208.733,837.214 209.408,837.662C210.488,838.709 211.37,839.449 211.615,839.449C212.85,839.449 216.628,837.233 218.865,835.197L219.998,834.166C220.456,833.868 220.808,833.697 221.106,833.644C221.299,833.671 221.493,833.728 221.69,833.818L224.225,836.353C227.903,840.031 229.107,839.88 236.664,834.793L241.625,831.453L242.289,832.179L244.998,835.437C249.937,841.38 252.996,841.042 260.377,833.738L264.783,829.377C265.539,828.803 266.174,828.408 266.697,828.183L270.906,829.377C273.308,830.057 275.096,830.518 276.6,830.8L280.08,831.826L282.494,830.582C283.561,830.223 284.71,829.686 286.152,828.955L291.434,826.279L297.049,831.759C297.19,831.897 297.322,832.014 297.461,832.148C298.65,833.351 299.8,834.352 300.906,835.179C306.963,839.955 310.516,839.345 312.301,833.388C312.486,832.771 312.643,832.324 312.815,831.802C313.225,830.639 313.618,829.769 313.85,829.523C314.157,829.631 317.141,831.318 320.787,833.449C324.552,835.649 328.28,837.449 329.07,837.449C331.001,837.449 334.164,834.491 334.164,832.687C334.164,832.679 334.166,832.671 334.166,832.664C334.598,832.163 335.058,831.865 335.467,831.832C335.613,831.874 335.742,831.898 335.914,831.97C336.877,832.376 340.044,832.932 342.953,833.205C348.131,833.691 348.266,833.635 349.422,830.574C349.831,829.489 350.146,828.782 350.613,828.318C350.656,828.284 350.703,828.261 350.746,828.23C351.31,827.916 352.119,827.688 353.268,827.511C353.413,827.5 353.539,827.482 353.697,827.478C353.701,827.478 353.703,827.478 353.711,827.478C354.093,827.463 354.513,827.455 354.981,827.455C354.992,827.455 355.001,827.453 355.012,827.453C355.199,827.452 355.352,827.449 355.555,827.449C355.896,827.449 356.199,827.419 356.522,827.404C356.673,827.396 356.839,827.394 356.985,827.382C361.566,827.059 364.163,825.173 364.166,822.044C364.167,820.748 364.276,820.254 371.065,820.044L379.449,820.265C388.369,820.502 399.409,820.243 411.067,819.605C426.157,819.177 436.988,818.103 456.164,815.507L467.735,813.943L469.643,813.701L469.842,813.874L472.164,816.425C474.593,819.092 477.27,820.702 480.197,821.271C480.238,821.279 480.281,821.281 480.322,821.289C483.086,821.797 486.072,821.385 489.293,820.037C492.82,818.56 497.282,814.443 501.912,808.732C504.748,805.329 507.531,801.402 510.229,797.003C513.592,791.642 516.798,785.741 519.541,779.703C533.759,748.404 542.969,708.159 544.332,679.671C544.74,674.673 544.903,670.877 544.649,670.044C544.594,669.868 544.523,669.396 544.443,668.798C544.072,657.445 541.999,649.103 537.94,645.759C536.846,644.859 535.271,642.748 534.149,640.771C534.081,639.794 533.422,638.744 532.479,637.828C531.599,636.541 530.739,636.038 529.229,635.791C528.81,635.647 528.389,635.545 527.977,635.492C527.914,635.484 527.852,635.482 527.789,635.474C527.69,635.463 527.589,635.447 527.494,635.447C527.483,635.447 527.464,635.451 527.451,635.455C527.421,635.454 527.391,635.447 527.361,635.447C526.948,635.447 526.525,635.511 526.098,635.621C524.353,635.792 523.201,636.641 521.061,638.91C520.431,639.578 519.776,640.171 519.156,640.664C518.621,641.053 518.098,641.415 517.629,641.691C517.103,641.966 516.675,642.089 516.428,641.994C515.346,641.579 513.874,642.361 512.143,644.154C510.984,645.245 509.723,646.891 508.307,649.156C506.556,651.838 504.674,655.189 502.735,659.142C500.072,664.569 498.079,668.546 497.295,670.037C497.002,670.527 496.721,670.993 496.557,671.199C496.017,670.939 493.257,668.413 490.033,665.209C478.71,653.952 467.124,646.046 459.147,644.13C457.348,643.698 455.905,642.013 454.096,638.236C452.703,635.327 448.148,626.197 443.975,617.947C429.823,589.974 421.66,564.621 419.666,542.447C419.345,538.872 418.847,534.031 418.561,531.689C418.449,530.775 418.385,530.065 418.406,529.406C418.551,528.461 418.807,527.645 419.162,526.869C420.1,525.283 422.052,523.208 425.871,519.189C430.179,514.656 435.258,508.922 437.158,506.447C439.058,503.972 440.868,501.722 441.178,501.447C443.069,499.771 447.772,492.266 452.387,484.078C454.729,480.141 456.792,476.284 458.553,472.568C460.501,468.708 462.088,465.279 462.932,462.947C465.403,456.116 467.281,444.036 467.076,436.294C466.692,421.756 464.415,412.22 455.174,386.447C446.198,361.414 443.633,352.342 438.063,325.947C433.9,306.221 430.883,296.279 424.412,280.947L419.565,269.462C419.418,268.014 419.314,266.17 419.252,263.783L419.225,262.365C419.187,260.365 419.162,258.162 419.162,255.443C419.162,250.501 419.058,245.056 418.873,239.423C418.755,234.152 418.595,229.292 418.369,224.613C416.914,188.02 412.592,158.866 403.199,120.304C389.646,64.663 363.628,6.271 338.225,-25.51C333.161,-31.845 329.187,-35.74 326.063,-37.362C325.152,-37.987 324.412,-38.324 323.76,-38.399L323.758,-38.398ZM97.984,508.107L106.066,524.27L90.914,585.889L58.588,569.727L97.984,508.107Z" style="fill-rule:nonzero;"/>
            </g>
            <g id="path2700" transform="matrix(0.264583,0,0,0.264583,0,0)">
                <path d="M212.188,839.35C211.962,839.414 211.768,839.447 211.613,839.447C211.614,839.447 211.614,839.449 211.615,839.449C211.77,839.449 211.962,839.414 212.188,839.35L212.188,839.35Z" style="fill:rgb(255,215,62);fill-rule:nonzero;"/>
            </g>
            <g id="path2698" transform="matrix(0.264583,0,0,0.264583,0,0)">
                <path d="M254.533,838.564C253.873,838.942 253.249,839.213 252.65,839.381C253.249,839.213 253.873,838.942 254.533,838.564Z" style="fill:rgb(255,215,62);fill-rule:nonzero;"/>
            </g>
            <g id="path2696" transform="matrix(0.264583,0,0,0.264583,0,0)">
                <path d="M231.17,838.148C230.336,838.544 229.628,838.779 228.988,838.859C229.628,838.779 230.336,838.544 231.17,838.148Z" style="fill:rgb(255,215,62);fill-rule:nonzero;"/>
            </g>
            <g id="path2694" transform="matrix(0.264583,0,0,0.264583,0,0)">
                <path d="M226.09,838.01C226.472,838.285 226.843,838.497 227.217,838.645C226.843,838.497 226.472,838.285 226.09,838.01Z" style="fill:rgb(255,215,62);fill-rule:nonzero;"/>
            </g>
            <g id="path2692" transform="matrix(0.264583,0,0,0.264583,0,0)">
                <path d="M246.773,837.369C247.344,837.914 247.897,838.36 248.445,838.705C247.897,838.36 247.344,837.914 246.773,837.369Z" style="fill:rgb(255,215,62);fill-rule:nonzero;"/>
            </g>
            <g id="path2690" transform="matrix(0.264583,0,0,0.264583,0,0)">
                <path d="M328.641,837.367C328.826,837.421 328.972,837.449 329.07,837.449C329.191,837.449 329.316,837.436 329.445,837.414C329.316,837.436 329.189,837.447 329.068,837.447C328.97,837.447 328.826,837.421 328.641,837.367L328.641,837.367Z" style="fill:rgb(255,215,62);fill-rule:nonzero;"/>
            </g>
            <g id="path2688" transform="matrix(0.264583,0,0,0.264583,0,0)">
                <path d="M331.529,836.418C330.97,836.828 330.384,837.15 329.842,837.318C330.384,837.15 330.97,836.828 331.529,836.418Z" style="fill:rgb(255,215,62);fill-rule:nonzero;"/>
            </g>
            <g id="path2686" transform="matrix(0.264583,0,0,0.264583,0,0)">
                <path d="M192.637,836.244C192.008,836.315 191.415,836.338 190.861,836.316C190.576,836.312 190.303,836.298 190.039,836.27C190.303,836.298 190.578,836.315 190.863,836.318C191.417,836.34 192.008,836.315 192.637,836.244Z" style="fill:rgb(255,215,62);fill-rule:nonzero;"/>
            </g>
            <g id="path2684" transform="matrix(0.264583,0,0,0.264583,0,0)">
                <path d="M195.715,835.602C194.976,835.816 194.273,835.983 193.607,836.102C194.273,835.983 194.976,835.816 195.715,835.602Z" style="fill:rgb(255,215,62);fill-rule:nonzero;"/>
            </g>
            <g id="path2682" transform="matrix(0.264583,0,0,0.264583,0,0)">
                <path d="M198.035,834.811C197.226,835.124 196.453,835.387 195.715,835.602C196.453,835.387 197.227,835.123 198.035,834.811Z" style="fill:rgb(255,215,62);fill-rule:nonzero;"/>
            </g>
            <g id="path2680" transform="matrix(0.264583,0,0,0.264583,0,0)">
                <path d="M220.611,833.812C220.429,833.899 220.225,834.015 219.996,834.164L218.863,835.195C217.745,836.214 216.242,837.278 214.863,838.086C216.242,837.278 217.746,836.216 218.865,835.197L219.998,834.166C220.227,834.017 220.429,833.899 220.611,833.812Z" style="fill:rgb(255,215,62);fill-rule:nonzero;"/>
            </g>
            <g id="path2678" transform="matrix(0.264583,0,0,0.264583,0,0)">
                <path d="M221.104,833.643C220.955,833.669 220.794,833.726 220.611,833.812C220.794,833.726 220.957,833.671 221.105,833.645C221.299,833.671 221.493,833.728 221.689,833.818L221.687,833.816C221.491,833.726 221.297,833.669 221.103,833.643L221.104,833.643Z" style="fill:rgb(255,215,62);fill-rule:nonzero;"/>
            </g>
            <g id="path2676" transform="matrix(0.264583,0,0,0.264583,0,0)">
                <path d="M347.359,833.326C346.998,833.412 346.554,833.441 345.984,833.43C346.553,833.441 346.999,833.412 347.359,833.326Z" style="fill:rgb(255,215,62);fill-rule:nonzero;"/>
            </g>
            <g id="path2674" transform="matrix(0.264583,0,0,0.264583,0,0)">
                <path d="M347.982,833.072C347.805,833.185 347.601,833.269 347.361,833.326C347.602,833.269 347.805,833.185 347.982,833.072Z" style="fill:rgb(255,215,62);fill-rule:nonzero;"/>
            </g>
            <g id="path2672" transform="matrix(0.264583,0,0,0.264583,0,0)">
                <path d="M348.451,832.639C348.382,832.728 348.308,832.809 348.23,832.881C348.309,832.808 348.381,832.728 348.451,832.639Z" style="fill:rgb(255,215,62);fill-rule:nonzero;"/>
            </g>
            <g id="path2670" transform="matrix(0.264583,0,0,0.264583,0,0)">
                <path d="M334.492,832.328C334.382,832.427 334.272,832.539 334.164,832.664C334.164,832.672 334.162,832.678 334.162,832.686C334.162,832.798 334.151,832.916 334.127,833.037C334.15,832.916 334.164,832.8 334.164,832.688C334.164,832.68 334.166,832.672 334.166,832.664C334.274,832.539 334.382,832.427 334.492,832.328L334.492,832.328Z" style="fill:rgb(255,215,62);fill-rule:nonzero;"/>
            </g>
            <g id="path2668" transform="matrix(0.264583,0,0,0.264583,0,0)">
                <path d="M337.01,832.297C338.394,832.625 340.611,832.972 342.727,833.18C340.611,832.972 338.394,832.626 337.01,832.297Z" style="fill:rgb(255,215,62);fill-rule:nonzero;"/>
            </g>
            <g id="path2666" transform="matrix(0.264583,0,0,0.264583,0,0)">
                <path d="M204.258,832.16L199.275,834.303C198.854,834.484 198.441,834.654 198.037,834.811C198.442,834.654 198.855,834.486 199.277,834.305L204.26,832.162L204.258,832.16Z" style="fill:rgb(255,215,62);fill-rule:nonzero;"/>
            </g>
            <g id="path2664" transform="matrix(0.264583,0,0,0.264583,0,0)">
                <path d="M241.623,831.451L236.662,834.791C235.717,835.427 234.873,835.987 234.109,836.471C234.873,835.987 235.719,835.429 236.664,834.793L241.625,831.453L241.623,831.451Z" style="fill:rgb(255,215,62);fill-rule:nonzero;"/>
            </g>
            <g id="path2662" transform="matrix(0.264583,0,0,0.264583,0,0)">
                <path d="M311.943,834.441C311.567,835.433 311.126,836.236 310.617,836.852C311.126,836.237 311.567,835.432 311.943,834.441Z" style="fill:rgb(255,215,62);fill-rule:nonzero;"/>
            </g>
            <g id="path2660" transform="matrix(0.264583,0,0,0.264583,0,0)">
                <path d="M313.398,830.318C313.22,830.712 313.018,831.219 312.812,831.801C312.641,832.322 312.484,832.769 312.299,833.387C312.187,833.759 312.069,834.111 311.943,834.441C312.069,834.111 312.189,833.761 312.301,833.389C312.486,832.771 312.643,832.324 312.814,831.803C313.02,831.221 313.22,830.712 313.398,830.318Z" style="fill:rgb(255,215,62);fill-rule:nonzero;"/>
            </g>
            <g id="path2658" transform="matrix(0.264583,0,0,0.264583,0,0)">
                <path d="M313.848,829.521C313.79,829.583 313.722,829.684 313.646,829.818C313.722,829.684 313.792,829.585 313.85,829.523C313.849,829.523 313.848,829.521 313.848,829.521L313.848,829.521Z" style="fill:rgb(255,215,62);fill-rule:nonzero;"/>
            </g>
            <g id="path2656" transform="matrix(0.264583,0,0,0.264583,0,0)">
                <path d="M349.994,829.213C349.806,829.583 349.625,830.032 349.42,830.574C349.275,830.957 349.148,831.292 349.023,831.586C349.148,831.292 349.277,830.957 349.422,830.574C349.627,830.032 349.806,829.583 349.994,829.213Z" style="fill:rgb(255,215,62);fill-rule:nonzero;"/>
            </g>
            <g id="path2654" transform="matrix(0.264583,0,0,0.264583,0,0)">
                <path d="M350.611,828.318C350.377,828.551 350.182,828.843 349.994,829.213C350.182,828.843 350.379,828.551 350.613,828.318C350.613,828.319 350.611,828.318 350.611,828.318L350.611,828.318Z" style="fill:rgb(255,215,62);fill-rule:nonzero;"/>
            </g>
            <g id="path2652" transform="matrix(0.264583,0,0,0.264583,0,0)">
                <path d="M353.266,827.512C352.404,827.644 351.734,827.805 351.215,828.01C351.734,827.805 352.405,827.644 353.266,827.512Z" style="fill:rgb(255,215,62);fill-rule:nonzero;"/>
            </g>
            <g id="path2650" transform="matrix(0.264583,0,0,0.264583,0,0)">
                <path d="M354.957,827.455C354.5,827.455 354.086,827.462 353.711,827.477C353.703,827.477 353.699,827.476 353.695,827.477C353.537,827.485 353.412,827.5 353.268,827.512C353.413,827.5 353.539,827.482 353.697,827.479C353.702,827.478 353.704,827.479 353.709,827.479C354.085,827.464 354.499,827.455 354.957,827.455L354.957,827.455Z" style="fill:rgb(255,215,62);fill-rule:nonzero;"/>
            </g>
            <g id="path2648" transform="matrix(0.264583,0,0,0.264583,0,0)">
                <path d="M358.607,827.188C358.098,827.276 357.555,827.34 356.982,827.381C356.837,827.392 356.673,827.397 356.521,827.404C356.673,827.396 356.839,827.394 356.984,827.383C357.557,827.342 358.098,827.276 358.607,827.187L358.607,827.188Z" style="fill:rgb(255,215,62);fill-rule:nonzero;"/>
            </g>
            <g id="path2646" transform="matrix(0.264583,0,0,0.264583,0,0)">
                <path d="M259.041,835.025C258.183,835.83 257.386,836.526 256.639,837.115C257.386,836.526 258.183,835.83 259.041,835.025Z" style="fill:rgb(255,215,62);fill-rule:nonzero;"/>
            </g>
            <g id="path2644" transform="matrix(0.264583,0,0,0.264583,0,0)">
                <path d="M265.826,828.648C265.508,828.847 265.159,829.088 264.781,829.375L260.375,833.736C259.914,834.193 259.47,834.623 259.041,835.025C259.47,834.623 259.916,834.195 260.377,833.738L264.783,829.377C265.161,829.09 265.508,828.847 265.826,828.648Z" style="fill:rgb(255,215,62);fill-rule:nonzero;"/>
            </g>
            <g id="path2642" transform="matrix(0.264583,0,0,0.264583,0,0)">
                <path d="M291.432,826.277L286.15,828.953C284.708,829.684 283.558,830.222 282.492,830.58L280.078,831.824L276.598,830.799C275.094,830.517 273.306,830.055 270.904,829.375L266.695,828.182C266.433,828.294 266.145,828.45 265.826,828.648C266.145,828.45 266.435,828.296 266.697,828.184L270.906,829.377C273.308,830.057 275.096,830.519 276.6,830.801L280.08,831.826L282.494,830.582C283.56,830.224 284.71,829.686 286.152,828.955L291.434,826.279L291.432,826.277Z" style="fill:rgb(255,215,62);fill-rule:nonzero;"/>
            </g>
            <g id="path2640" transform="matrix(0.264583,0,0,0.264583,0,0)">
                <path d="M362.723,825.41C362.318,825.781 361.831,826.103 361.268,826.375C361.831,826.103 362.318,825.781 362.723,825.41Z" style="fill:rgb(255,215,62);fill-rule:nonzero;"/>
            </g>
            <g id="path2638" transform="matrix(0.264583,0,0,0.264583,0,0)">
                <path d="M62.318,825.814C62.851,825.93 63.361,826.004 63.854,826.035C63.361,826.004 62.851,825.93 62.318,825.814Z" style="fill:rgb(255,215,62);fill-rule:nonzero;"/>
            </g>
            <g id="path2636" transform="matrix(0.264583,0,0,0.264583,0,0)">
                <path d="M60.854,825.408C61.359,825.575 61.849,825.713 62.318,825.814C61.85,825.713 61.359,825.574 60.854,825.408Z" style="fill:rgb(255,215,62);fill-rule:nonzero;"/>
            </g>
            <g id="path2634" transform="matrix(0.264583,0,0,0.264583,0,0)">
                <path d="M93.402,826.699C94.759,826.837 96.494,826.953 98.516,827.051C96.494,826.953 94.759,826.837 93.402,826.699Z" style="fill:rgb(255,215,62);fill-rule:nonzero;"/>
            </g>
            <g id="path2632" transform="matrix(0.264583,0,0,0.264583,0,0)">
                <path d="M85.74,825.291C86.329,825.41 86.924,825.528 87.561,825.631C89.079,825.98 90.529,826.292 91.664,826.479C92.142,826.557 92.724,826.631 93.402,826.699C92.724,826.631 92.14,826.555 91.662,826.477C90.527,826.29 89.077,825.977 87.559,825.629C86.923,825.526 86.328,825.41 85.74,825.291Z" style="fill:rgb(255,215,62);fill-rule:nonzero;"/>
            </g>
            <g id="path2630" transform="matrix(0.264583,0,0,0.264583,0,0)">
                <path d="M161.715,825.555C157.333,825.851 152.962,826.169 149.662,826.438C147.706,826.597 145.453,826.737 142.992,826.857C145.454,826.737 147.708,826.599 149.664,826.439C152.964,826.171 157.333,825.851 161.715,825.555Z" style="fill:rgb(255,215,62);fill-rule:nonzero;"/>
            </g>
            <g id="path2628" transform="matrix(0.264583,0,0,0.264583,0,0)">
                <path d="M186.014,824.146L173.838,824.803C170.49,824.984 166.097,825.258 161.715,825.555C166.097,825.258 170.492,824.986 173.84,824.805L186.014,824.148L186.014,824.146Z" style="fill:rgb(255,215,62);fill-rule:nonzero;"/>
            </g>
            <g id="path2626" transform="matrix(0.264583,0,0,0.264583,0,0)">
                <path d="M56.018,823.146C56.957,823.718 57.894,824.209 58.83,824.623C57.893,824.209 56.957,823.719 56.018,823.146Z" style="fill:rgb(255,215,62);fill-rule:nonzero;"/>
            </g>
            <g id="path2624" transform="matrix(0.264583,0,0,0.264583,0,0)">
                <path d="M364.184,821.594C364.167,821.732 364.164,821.881 364.164,822.043C364.164,822.239 364.155,822.429 364.135,822.615C364.155,822.429 364.166,822.24 364.166,822.045C364.166,821.883 364.167,821.732 364.184,821.594Z" style="fill:rgb(255,215,62);fill-rule:nonzero;"/>
            </g>
            <g id="path2622" transform="matrix(0.264583,0,0,0.264583,0,0)">
                <path d="M66.617,825.713C66.183,825.852 65.739,825.948 65.279,826.002C65.739,825.948 66.183,825.852 66.617,825.713Z" style="fill:rgb(255,215,62);fill-rule:nonzero;"/>
            </g>
            <g id="path2620" transform="matrix(0.264583,0,0,0.264583,0,0)">
                <path d="M69.725,823.854C68.718,824.747 67.702,825.365 66.617,825.713C67.702,825.365 68.718,824.747 69.725,823.854Z" style="fill:rgb(255,215,62);fill-rule:nonzero;"/>
            </g>
            <g id="path2618" transform="matrix(0.264583,0,0,0.264583,0,0)">
                <path d="M72.438,821.172L70.326,823.283C70.125,823.484 69.926,823.675 69.725,823.854C69.926,823.675 70.127,823.486 70.328,823.285L72.439,821.174L79.053,823.332C79.208,823.383 79.41,823.437 79.572,823.488C79.571,823.488 79.571,823.486 79.57,823.486C79.408,823.435 79.206,823.381 79.051,823.33L72.438,821.172Z" style="fill:rgb(255,215,62);fill-rule:nonzero;"/>
            </g>
            <g id="path2616" transform="matrix(0.264583,0,0,0.264583,0,0)">
                <path d="M480.322,821.289C481.704,821.543 483.14,821.567 484.635,821.359C483.14,821.567 481.704,821.543 480.322,821.289Z" style="fill:rgb(255,215,62);fill-rule:nonzero;"/>
            </g>
            <g id="path2614" transform="matrix(0.264583,0,0,0.264583,0,0)">
                <path d="M479.109,821.008C479.467,821.111 479.831,821.2 480.197,821.271C480.238,821.279 480.281,821.281 480.322,821.289C480.281,821.281 480.236,821.277 480.195,821.27C479.829,821.198 479.467,821.112 479.109,821.008L479.109,821.008Z" style="fill:rgb(255,215,62);fill-rule:nonzero;"/>
            </g>
            <g id="path2612" transform="matrix(0.264583,0,0,0.264583,0,0)">
                <path d="M364.559,820.896C364.495,820.945 364.443,820.995 364.398,821.049C364.443,820.996 364.496,820.944 364.559,820.896Z" style="fill:rgb(255,215,62);fill-rule:nonzero;"/>
            </g>
            <g id="path2610" transform="matrix(0.264583,0,0,0.264583,0,0)">
                <path d="M367.121,820.262C365.674,820.406 364.936,820.609 364.559,820.896C364.936,820.609 365.675,820.406 367.121,820.262Z" style="fill:rgb(255,215,62);fill-rule:nonzero;"/>
            </g>
            <g id="path2608" transform="matrix(0.264583,0,0,0.264583,0,0)">
                <path d="M371.062,820.043C370.214,820.069 369.471,820.101 368.818,820.137C369.471,820.101 370.216,820.071 371.064,820.045L379.449,820.266C383.909,820.384 388.898,820.377 394.23,820.262C388.898,820.377 383.907,820.382 379.447,820.264L371.062,820.043Z" style="fill:rgb(255,215,62);fill-rule:nonzero;"/>
            </g>
            <g id="path2606" transform="matrix(0.264583,0,0,0.264583,0,0)">
                <path d="M489.293,820.037C488.488,820.374 487.696,820.653 486.92,820.873C487.696,820.653 488.488,820.374 489.293,820.037Z" style="fill:rgb(255,215,62);fill-rule:nonzero;"/>
            </g>
            <g id="path2604" transform="matrix(0.264583,0,0,0.264583,0,0)">
                <path d="M416.549,819.412C414.771,819.488 412.951,819.55 411.064,819.604C408.15,819.763 405.275,819.9 402.461,820.01C405.275,819.9 408.152,819.765 411.066,819.605C412.953,819.552 414.771,819.488 416.549,819.412Z" style="fill:rgb(255,215,62);fill-rule:nonzero;"/>
            </g>
            <g id="path2602" transform="matrix(0.264583,0,0,0.264583,0,0)">
                <path d="M474.031,818.227C474.989,819.029 475.98,819.682 477.008,820.189C475.98,819.682 474.989,819.029 474.031,818.227Z" style="fill:rgb(255,215,62);fill-rule:nonzero;"/>
            </g>
            <g id="path2600" transform="matrix(0.264583,0,0,0.264583,0,0)">
                <path d="M48.854,817.279C49.343,817.78 49.829,818.257 50.312,818.713C49.829,818.258 49.342,817.779 48.854,817.279Z" style="fill:rgb(255,215,62);fill-rule:nonzero;"/>
            </g>
            <g id="path2598" transform="matrix(0.264583,0,0,0.264583,0,0)">
                <path d="M443.148,817.182C435.253,818.126 428.655,818.746 421.781,819.148C428.655,818.746 435.253,818.126 443.148,817.182Z" style="fill:rgb(255,215,62);fill-rule:nonzero;"/>
            </g>
            <g id="path2596" transform="matrix(0.264583,0,0,0.264583,0,0)">
                <path d="M495.188,815.973C494.12,816.937 493.088,817.768 492.102,818.451C493.088,817.768 494.12,816.937 495.188,815.973Z" style="fill:rgb(255,215,62);fill-rule:nonzero;"/>
            </g>
            <g id="path2594" transform="matrix(0.264583,0,0,0.264583,0,0)">
                <path d="M469.641,813.699L467.732,813.941L456.162,815.506C453.765,815.83 451.499,816.132 449.338,816.41C451.499,816.132 453.767,815.832 456.164,815.508L467.734,813.943L469.643,813.701L469.641,813.699Z" style="fill:rgb(255,215,62);fill-rule:nonzero;"/>
            </g>
            <g id="path2592" transform="matrix(0.264583,0,0,0.264583,0,0)">
                <path d="M504.027,806.084C503.326,806.999 502.619,807.882 501.91,808.732C501.331,809.446 500.756,810.135 500.184,810.797C500.756,810.135 501.333,809.446 501.912,808.732C502.621,807.882 503.325,806.999 504.027,806.084Z" style="fill:rgb(255,215,62);fill-rule:nonzero;"/>
            </g>
            <g id="path2590" transform="matrix(0.264583,0,0,0.264583,0,0)">
                <path d="M541.881,702.92C541.242,707.053 540.493,711.289 539.637,715.588C540.493,711.289 541.242,707.053 541.881,702.92Z" style="fill:rgb(255,215,62);fill-rule:nonzero;"/>
            </g>
            <g id="path2588" transform="matrix(0.264583,0,0,0.264583,0,0)">
                <path d="M544.441,668.799C544.521,669.396 544.592,669.868 544.646,670.045C544.774,670.461 544.798,671.617 544.738,673.295C544.798,671.618 544.775,670.461 544.648,670.045C544.594,669.868 544.521,669.396 544.441,668.799L544.441,668.799Z" style="fill:rgb(255,215,62);fill-rule:nonzero;"/>
            </g>
            <g id="path2586" transform="matrix(0.264583,0,0,0.264583,0,0)">
                <path d="M33.902,660.949C34.157,661.261 34.388,661.53 34.59,661.75C34.59,661.75 34.591,661.75 34.592,661.75C34.39,661.53 34.157,661.261 33.902,660.949L33.902,660.949Z" style="fill:rgb(255,215,62);fill-rule:nonzero;"/>
            </g>
            <g id="path2584" transform="matrix(0.264583,0,0,0.264583,0,0)">
                <path d="M543.336,657.652C543.515,658.612 543.672,659.614 543.809,660.658C543.672,659.614 543.515,658.612 543.336,657.652Z" style="fill:rgb(255,215,62);fill-rule:nonzero;"/>
            </g>
            <g id="path2582" transform="matrix(0.264583,0,0,0.264583,0,0)">
                <path d="M30.256,656.006C30.57,656.424 30.934,656.89 31.162,657.227C31.829,658.212 32.485,659.122 33.074,659.896C32.485,659.122 31.831,658.212 31.164,657.227C30.936,656.889 30.57,656.425 30.256,656.006Z" style="fill:rgb(255,215,62);fill-rule:nonzero;"/>
            </g>
            <g id="path2580" transform="matrix(0.264583,0,0,0.264583,0,0)">
                <path d="M540.615,649.174C541.001,649.889 541.355,650.674 541.682,651.525C541.355,650.674 541.001,649.889 540.615,649.174Z" style="fill:rgb(255,215,62);fill-rule:nonzero;"/>
            </g>
            <g id="path2578" transform="matrix(0.264583,0,0,0.264583,0,0)">
                <path d="M538.676,646.445C539.152,646.94 539.598,647.511 540.014,648.154C539.598,647.511 539.152,646.94 538.676,646.445Z" style="fill:rgb(255,215,62);fill-rule:nonzero;"/>
            </g>
            <g id="path2576" transform="matrix(0.264583,0,0,0.264583,0,0)">
                <path d="M456.279,641.992C456.498,642.279 456.717,642.534 456.936,642.76C456.717,642.534 456.498,642.279 456.279,641.992Z" style="fill:rgb(255,215,62);fill-rule:nonzero;"/>
            </g>
            <g id="path2574" transform="matrix(0.264583,0,0,0.264583,0,0)">
                <path d="M17.176,641.346C17.891,642.06 18.677,642.859 19.549,643.752C19.831,644.04 20.127,644.371 20.414,644.67C20.919,645.192 21.424,645.727 21.93,646.275C23.832,648.319 25.743,650.469 27.377,652.402C25.743,650.469 23.834,648.319 21.932,646.275C21.426,645.727 20.921,645.192 20.416,644.67C20.129,644.371 19.833,644.04 19.551,643.752C18.679,642.859 17.891,642.06 17.176,641.346Z" style="fill:rgb(255,215,62);fill-rule:nonzero;"/>
            </g>
            <g id="path2572" transform="matrix(0.264583,0,0,0.264583,0,0)">
                <path d="M534.014,640.109C534.084,640.332 534.131,640.554 534.146,640.771C534.131,640.554 534.084,640.332 534.014,640.109Z" style="fill:rgb(255,215,62);fill-rule:nonzero;"/>
            </g>
            <g id="path2570" transform="matrix(0.264583,0,0,0.264583,0,0)">
                <path d="M65.268,619.744C65.535,619.948 65.785,620.169 66.025,620.416C65.785,620.169 65.535,619.948 65.268,619.744Z" style="fill:rgb(255,215,62);fill-rule:nonzero;"/>
            </g>
            <g id="path2568" transform="matrix(0.264583,0,0,0.264583,0,0)">
                <path d="M31.369,606.605C40.973,610.106 50.379,613.612 56.803,616.078C50.379,613.612 40.973,610.106 31.369,606.605Z" style="fill:rgb(255,215,62);fill-rule:nonzero;"/>
            </g>
            <g id="path2566" transform="matrix(0.264583,0,0,0.264583,0,0)">
                <path d="M4.871,596.875C6.293,597.471 7.995,598.138 10.027,598.898C7.995,598.138 6.293,597.471 4.871,596.875Z" style="fill:rgb(255,215,62);fill-rule:nonzero;"/>
            </g>
            <g id="path2564" transform="matrix(0.264583,0,0,0.264583,0,0)">
                <path d="M1.398,595.271C2.307,595.752 3.449,596.279 4.871,596.875C3.449,596.279 2.307,595.752 1.398,595.271Z" style="fill:rgb(255,215,62);fill-rule:nonzero;"/>
            </g>
            <g id="path2562" transform="matrix(0.264583,0,0,0.264583,0,0)">
                <path d="M433.051,593.941C434.185,596.762 435.374,599.609 436.646,602.492C435.374,599.608 434.185,596.762 433.051,593.941Z" style="fill:rgb(255,215,62);fill-rule:nonzero;"/>
            </g>
            <g id="path2560" transform="matrix(0.264583,0,0,0.264583,0,0)">
                <path d="M-1.547,593.328C-1.45,593.418 -1.329,593.514 -1.184,593.617C-1.328,593.515 -1.45,593.418 -1.547,593.328Z" style="fill:rgb(255,215,62);fill-rule:nonzero;"/>
            </g>
            <g id="path2558" transform="matrix(0.264583,0,0,0.264583,0,0)">
                <path d="M419.562,526.248C419.412,526.464 419.277,526.671 419.16,526.869C418.982,527.257 418.83,527.655 418.703,528.074C418.83,527.655 418.984,527.257 419.162,526.869C419.279,526.671 419.412,526.464 419.562,526.248Z" style="fill:rgb(255,215,62);fill-rule:nonzero;"/>
            </g>
            <g id="path2556" transform="matrix(0.264583,0,0,0.264583,0,0)">
                <path d="M429.184,515.635C428.072,516.848 426.946,518.057 425.869,519.189C424.914,520.194 424.076,521.077 423.342,521.861C424.076,521.077 424.916,520.194 425.871,519.189C426.948,518.056 428.072,516.848 429.184,515.635Z" style="fill:rgb(255,215,62);fill-rule:nonzero;"/>
            </g>
            <g id="path2552" transform="matrix(0.264583,0,0,0.264583,0,0)">
                <path d="M439.764,503.123C439.035,504.029 438.106,505.21 437.156,506.447C436.681,507.066 436.008,507.887 435.197,508.844C436.007,507.888 436.683,507.066 437.158,506.447C438.108,505.21 439.035,504.029 439.764,503.123Z" style="fill:rgb(255,215,62);fill-rule:nonzero;"/>
            </g>
            <g id="path2550" transform="matrix(0.264583,0,0,0.264583,0,0)">
                <path d="M442.012,500.555C441.693,500.936 441.412,501.238 441.176,501.447C441.021,501.585 440.492,502.215 439.764,503.121C440.492,502.216 441.023,501.585 441.178,501.447C441.414,501.238 441.693,500.936 442.012,500.555Z" style="fill:rgb(255,215,62);fill-rule:nonzero;"/>
            </g>
            <g id="path2548" transform="matrix(0.264583,0,0,0.264583,0,0)">
                <path d="M444.338,497.375C443.44,498.705 442.649,499.792 442.012,500.555C442.649,499.792 443.44,498.706 444.338,497.375Z" style="fill:rgb(255,215,62);fill-rule:nonzero;"/>
            </g>
            <g id="path2546" transform="matrix(0.264583,0,0,0.264583,0,0)">
                <path d="M23.189,489.547C24.502,489.76 25.512,489.978 26.18,490.201C25.511,489.978 24.503,489.76 23.189,489.547Z" style="fill:rgb(255,215,62);fill-rule:nonzero;"/>
            </g>
            <g id="path2544" transform="matrix(0.264583,0,0,0.264583,0,0)">
                <path d="M-4.482,487.418C-1.017,487.572 1.783,487.728 3.664,487.881C1.783,487.728 -1.017,487.572 -4.482,487.418Z" style="fill:rgb(255,215,62);fill-rule:nonzero;"/>
            </g>
            <g id="path2542" transform="matrix(0.264583,0,0,0.264583,0,0)">
                <path d="M-31.25,486.551C-21.008,486.807 -11.413,487.109 -4.482,487.418C-11.413,487.109 -21.008,486.807 -31.25,486.551Z" style="fill:rgb(255,215,62);fill-rule:nonzero;"/>
            </g>
            <g id="path2540" transform="matrix(0.264583,0,0,0.264583,0,0)">
                <path d="M-83.635,485.902C-84.7,485.922 -85.611,485.948 -86.336,485.98C-88.629,486.084 -90.582,486.194 -92.266,486.273C-90.582,486.194 -88.629,486.086 -86.336,485.982C-85.611,485.949 -84.7,485.922 -83.635,485.902L-83.635,485.902Z" style="fill:rgb(255,215,62);fill-rule:nonzero;"/>
            </g>
            <g id="path2538" transform="matrix(0.264583,0,0,0.264583,0,0)">
                <path d="M-80.012,485.859C-81.349,485.868 -82.569,485.882 -83.635,485.902C-82.569,485.883 -81.349,485.87 -80.012,485.861C-74.751,485.936 -69.071,486 -62.891,486.037C-57.371,486.071 -52.058,486.133 -46.844,486.207C-52.058,486.133 -57.371,486.069 -62.891,486.035C-69.071,485.998 -74.751,485.934 -80.012,485.859L-80.012,485.859Z" style="fill:rgb(255,215,62);fill-rule:nonzero;"/>
            </g>
            <g id="path2536" transform="matrix(0.264583,0,0,0.264583,0,0)">
                <path d="M-102.82,484.83C-102.674,485.001 -102.558,485.117 -102.479,485.166C-102.433,485.196 -102.236,485.223 -101.973,485.252C-101.803,485.355 -101.63,485.449 -101.451,485.535C-101.63,485.449 -101.803,485.353 -101.973,485.25C-102.236,485.221 -102.433,485.19 -102.479,485.164C-102.558,485.115 -102.674,485.001 -102.82,484.83L-102.82,484.83Z" style="fill:rgb(255,215,62);fill-rule:nonzero;"/>
            </g>
            <g id="path2534" transform="matrix(0.264583,0,0,0.264583,0,0)">
                <path d="M-104.699,482.561C-104.237,483.187 -103.792,483.717 -103.34,484.164C-103.792,483.716 -104.237,483.188 -104.699,482.561Z" style="fill:rgb(255,215,62);fill-rule:nonzero;"/>
            </g>
            <g id="path2532" transform="matrix(0.264583,0,0,0.264583,0,0)">
                <path d="M454.09,481.141C453.54,482.114 452.97,483.094 452.385,484.078C451.231,486.125 450.072,488.128 448.953,490.01C450.072,488.129 451.233,486.125 452.387,484.078C452.972,483.094 453.54,482.114 454.09,481.141Z" style="fill:rgb(255,215,62);fill-rule:nonzero;"/>
            </g>
            <g id="path2530" transform="matrix(0.264583,0,0,0.264583,0,0)">
                <path d="M457.174,475.381C456.219,477.272 455.19,479.194 454.09,481.141C455.19,479.194 456.219,477.272 457.174,475.381Z" style="fill:rgb(255,215,62);fill-rule:nonzero;"/>
            </g>
            <g id="path2528" transform="matrix(0.264583,0,0,0.264583,0,0)">
                <path d="M459.939,469.764C459.504,470.664 459.038,471.603 458.551,472.568C458.11,473.497 457.651,474.435 457.174,475.381C457.651,474.435 458.112,473.497 458.553,472.568C459.04,471.603 459.504,470.664 459.939,469.764Z" style="fill:rgb(255,215,62);fill-rule:nonzero;"/>
            </g>
            <g id="path2526" transform="matrix(0.264583,0,0,0.264583,0,0)">
                <path d="M462.164,464.891C461.568,466.31 460.811,467.962 459.939,469.764C460.811,467.962 461.568,466.31 462.164,464.891Z" style="fill:rgb(255,215,62);fill-rule:nonzero;"/>
            </g>
            <g id="path2524" transform="matrix(0.264583,0,0,0.264583,0,0)">
                <path d="M463.826,460.158C463.539,461.157 463.239,462.093 462.93,462.947C462.719,463.53 462.462,464.181 462.164,464.891C462.462,464.181 462.721,463.53 462.932,462.947C463.24,462.093 463.539,461.157 463.826,460.158Z" style="fill:rgb(255,215,62);fill-rule:nonzero;"/>
            </g>
            <g id="path2522" transform="matrix(0.264583,0,0,0.264583,0,0)">
                <path d="M466.984,433.713C467.022,434.559 467.051,435.417 467.074,436.295C467.1,437.263 467.093,438.296 467.057,439.381C467.093,438.297 467.102,437.262 467.076,436.295C467.053,435.417 467.022,434.559 466.984,433.713L466.984,433.713Z" style="fill:rgb(255,215,62);fill-rule:nonzero;"/>
            </g>
            <g id="path2520" transform="matrix(0.264583,0,0,0.264583,0,0)">
                <path d="M466.381,426.242C466.572,427.83 466.721,429.416 466.832,431.035C466.721,429.416 466.572,427.831 466.381,426.242Z" style="fill:rgb(255,215,62);fill-rule:nonzero;"/>
            </g>
            <g id="path2512" transform="matrix(0.264583,0,0,0.264583,0,0)">
                <path d="M463.078,410.361C463.591,412.186 464.05,413.928 464.445,415.584C464.05,413.928 463.591,412.187 463.078,410.361Z" style="fill:rgb(255,215,62);fill-rule:nonzero;"/>
            </g>
            <g id="path2504" transform="matrix(0.264583,0,0,0.264583,0,0)">
                <path d="M83.77,366.377C83.619,367.047 83.456,367.548 83.281,367.889C83.456,367.548 83.619,367.047 83.77,366.377Z" style="fill-rule:nonzero;"/>
            </g>
            <g id="path2500" transform="matrix(0.264583,0,0,0.264583,0,0)">
                <path d="M-167.391,353.129C-164.706,359.94 -161.83,366.983 -158.822,374.119C-161.83,366.983 -164.706,359.94 -167.391,353.129Z" style="fill:rgb(255,215,62);fill-rule:nonzero;"/>
            </g>
            <g id="path2492" transform="matrix(0.264583,0,0,0.264583,0,0)">
                <path d="M436.545,318.979C437.038,321.168 437.54,323.481 438.061,325.947C438.757,329.247 439.407,332.275 440.027,335.098C439.407,332.275 438.759,329.247 438.062,325.947C437.542,323.481 437.038,321.168 436.545,318.979Z" style="fill-rule:nonzero;"/>
            </g>
            <g id="path2486" transform="matrix(0.264583,0,0,0.264583,0,0)">
                <path d="M43.004,281.002C49.338,283.531 55.613,286.007 61.379,288.211C55.614,286.007 49.337,283.531 43.004,281.002Z" style="fill:rgb(255,215,62);fill-rule:nonzero;"/>
            </g>
            <g id="path2484" transform="matrix(0.264583,0,0,0.264583,0,0)">
                <path d="M419.375,266.975C419.427,267.915 419.489,268.739 419.562,269.463L424.41,280.947L419.564,269.463C419.491,268.739 419.427,267.915 419.375,266.975Z" style="fill-rule:nonzero;"/>
            </g>
            <g id="path2482" transform="matrix(0.264583,0,0,0.264583,0,0)">
                <path d="M418.873,239.424C419.058,245.057 419.162,250.501 419.162,255.443C419.162,250.501 419.058,245.057 418.873,239.424Z" style="fill:rgb(255,215,62);fill-rule:nonzero;"/>
            </g>
            <g id="path2480" transform="matrix(0.264583,0,0,0.264583,0,0)">
                <path d="M326.117,210.299C326.325,211.157 326.53,211.925 326.734,212.598C326.751,212.652 326.756,212.692 326.769,212.742C326.758,212.692 326.751,212.652 326.736,212.598C326.532,211.925 326.325,211.156 326.117,210.299L326.117,210.299Z" style="fill:rgb(255,215,62);fill-rule:nonzero;"/>
            </g>
            <g id="path2478" transform="matrix(0.264583,0,0,0.264583,0,0)">
                <path d="M-117.361,196.363C-115.296,197.87 -112.997,199.521 -110.492,201.283C-112.997,199.521 -115.297,197.869 -117.361,196.363Z" style="fill:rgb(255,215,62);fill-rule:nonzero;"/>
            </g>
            <g id="path2476" transform="matrix(0.264583,0,0,0.264583,0,0)">
                <path d="M403.199,120.305C404.239,124.573 405.207,128.709 406.125,132.77C405.207,128.709 404.239,124.573 403.199,120.305Z" style="fill:rgb(255,215,62);fill-rule:nonzero;"/>
            </g>
            <g id="path2474" transform="matrix(0.264583,0,0,0.264583,0,0)">
                <path d="M322.266,186.039C323.554,196.739 324.868,205.147 326.117,210.297C324.868,205.147 323.554,196.74 322.266,186.039Z" style="fill:rgb(255,215,62);fill-rule:nonzero;"/>
            </g>
            <g id="path2472" transform="matrix(0.264583,0,0,0.264583,0,0)">
                <path d="M319.154,155.068C320.137,166.612 321.192,177.122 322.266,186.039C321.192,177.122 320.137,166.612 319.154,155.068Z" style="fill:rgb(255,215,62);fill-rule:nonzero;"/>
            </g>
            <g id="path2470" transform="matrix(0.264583,0,0,0.264583,0,0)">
                <path d="M315.684,103.805C315.88,107.571 316.086,111.314 316.303,115.027C316.437,117.73 316.578,120.226 316.727,122.447C316.797,123.498 316.885,124.601 316.959,125.666C317.626,135.938 318.368,145.834 319.154,155.068C318.368,145.834 317.628,135.938 316.961,125.666C316.886,124.601 316.799,123.498 316.729,122.447C316.58,120.226 316.439,117.73 316.305,115.027C316.088,111.315 315.88,107.57 315.684,103.805Z" style="fill:rgb(255,215,62);fill-rule:nonzero;"/>
            </g>
            <g id="path2468" transform="matrix(0.264583,0,0,0.264583,0,0)">
                <path d="M397.559,99.367C398.446,102.378 399.295,105.389 400.117,108.4C399.295,105.39 398.446,102.377 397.559,99.367Z" style="fill:rgb(255,215,62);fill-rule:nonzero;"/>
            </g>
            <g id="path2466" transform="matrix(0.264583,0,0,0.264583,0,0)">
                <path d="M394.738,90.154C395.708,93.219 396.652,96.292 397.559,99.367C396.652,96.291 395.708,93.22 394.738,90.154Z" style="fill:rgb(255,215,62);fill-rule:nonzero;"/>
            </g>
            <g id="path2464" transform="matrix(0.264583,0,0,0.264583,0,0)">
                <path d="M387.24,68.23C388.963,72.91 390.62,77.637 392.211,82.393C390.62,77.638 388.963,72.909 387.24,68.23Z" style="fill:rgb(255,215,62);fill-rule:nonzero;"/>
            </g>
            <g id="path2460" transform="matrix(0.264583,0,0,0.264583,0,0)">
                <path d="M375.156,38.449C377.289,43.235 379.369,48.126 381.387,53.098C379.369,48.126 377.289,43.235 375.156,38.449Z" style="fill:rgb(255,215,62);fill-rule:nonzero;"/>
            </g>
            <g id="path2458" transform="matrix(0.264583,0,0,0.264583,0,0)">
                <path d="M370.824,29.023C372.289,32.114 373.734,35.259 375.156,38.449C373.735,35.258 372.289,32.114 370.824,29.023Z" style="fill:rgb(255,215,62);fill-rule:nonzero;"/>
            </g>
            <g id="path2456" transform="matrix(0.264583,0,0,0.264583,0,0)">
                <path d="M366.373,19.922C367.875,22.898 369.359,25.933 370.824,29.023C369.359,25.933 367.875,22.898 366.373,19.922Z" style="fill:rgb(255,215,62);fill-rule:nonzero;"/>
            </g>
            <g id="path2454" transform="matrix(0.264583,0,0,0.264583,0,0)">
                <path d="M352.494,-5.02C354.067,-2.475 355.632,0.153 357.188,2.855C355.632,0.153 354.067,-2.475 352.494,-5.02Z" style="fill:rgb(255,215,62);fill-rule:nonzero;"/>
            </g>
            <g id="path2452" transform="matrix(0.264583,0,0,0.264583,0,0)">
                <path d="M345.375,-15.895C347.757,-12.471 350.132,-8.84 352.492,-5.021C350.133,-8.839 347.756,-12.472 345.375,-15.895Z" style="fill:rgb(255,215,62);fill-rule:nonzero;"/>
            </g>
            <g id="path2450" transform="matrix(0.264583,0,0,0.264583,0,0)">
                <path d="M336.377,-27.771C336.976,-27.056 337.592,-26.302 338.225,-25.51C339.018,-24.517 339.813,-23.499 340.607,-22.455C339.813,-23.499 339.02,-24.517 338.227,-25.51C337.594,-26.302 336.976,-27.056 336.377,-27.771Z" style="fill:rgb(255,215,62);fill-rule:nonzero;"/>
            </g>
            <g id="path2448" transform="matrix(0.264583,0,0,0.264583,0,0)">
                <path d="M331.416,-33.203C332.929,-31.727 334.579,-29.919 336.377,-27.771C334.578,-29.92 332.929,-31.727 331.416,-33.203Z" style="fill:rgb(255,215,62);fill-rule:nonzero;"/>
            </g>
            <g id="path2446" transform="matrix(0.264583,0,0,0.264583,0,0)">
                <path d="M314.434,59.742C314.59,73.421 314.823,85.583 315.131,92.447C315.301,96.249 315.488,100.037 315.684,103.803C315.487,100.037 315.303,96.25 315.133,92.447C314.825,85.583 314.59,73.421 314.434,59.742Z" style="fill:rgb(255,215,62);fill-rule:nonzero;"/>
            </g>
            <g id="path2444" transform="matrix(0.264583,0,0,0.264583,0,0)">
                <path d="M314.344,-1.137C314.266,4.177 314.222,10.922 314.211,18.369C314.132,26.895 314.165,36.081 314.303,45.699C314.337,50.456 314.382,55.183 314.434,59.742C314.382,55.183 314.339,50.456 314.305,45.699C314.167,36.081 314.134,26.895 314.213,18.369C314.224,10.922 314.266,4.177 314.344,-1.137L314.344,-1.137Z" style="fill:rgb(255,215,62);fill-rule:nonzero;"/>
            </g>
            <g id="path2442" transform="matrix(0.264583,0,0,0.264583,0,0)">
                <path d="M314.58,-10.369C314.48,-8.302 314.402,-5.122 314.344,-1.137C314.402,-5.122 314.48,-8.302 314.58,-10.369Z" style="fill:rgb(255,215,62);fill-rule:nonzero;"/>
            </g>
            <g id="path2389" transform="matrix(0.264583,0,0,0.264583,0,0)">
                <path d="M320.277,-37.156C318.036,-35.128 316.834,-31.484 315.699,-22.016C315.689,-21.926 315.678,-21.848 315.668,-21.754C315.343,-19.013 315.023,-15.869 314.686,-12.053C314.648,-11.622 314.613,-11.058 314.58,-10.369C314.613,-11.058 314.65,-11.622 314.688,-12.053C315.025,-15.869 315.345,-19.013 315.67,-21.754C315.681,-21.848 315.69,-21.926 315.701,-22.016C316.835,-31.484 318.038,-35.128 320.279,-37.156C320.279,-37.156 320.277,-37.157 320.277,-37.156L320.277,-37.156Z" style="fill:rgb(255,215,62);fill-rule:nonzero;"/>
            </g>
            <g id="g2739" transform="matrix(1,0,0,1,-0.000003,-0.534539)">
                <path id="path2462" d="M85.24,12.818L85.242,14.833C85.242,15.311 85.252,15.904 85.264,16.546L85.305,18.083C85.493,24.702 86.085,36.004 86.424,38.617C86.48,39.054 86.603,40.423 86.697,41.66C86.921,44.614 88.047,53.385 88.41,55.005C88.843,56.935 89.043,57.151 90.983,57.776C92.72,58.335 94.103,59.003 94.841,59.558C95.077,59.718 95.231,59.856 95.275,59.961C95.553,60.312 95.452,60.574 94.849,60.659C94.532,60.704 93.639,60.55 92.865,60.317C90.625,59.641 83.962,58.361 81.52,58.137C81.126,58.1 80.703,58.07 80.267,58.042C78.636,57.97 76.755,57.956 74.258,57.958C72.684,57.959 71.286,57.981 69.957,58.017C66.913,58.148 63.933,58.388 61.559,58.723C54.152,59.766 51.782,60.269 46.345,61.949C45.04,62.352 44.143,62.62 43.556,62.841C43.395,62.905 43.248,62.966 43.12,63.023C42.26,63.443 42.684,63.762 43.639,64.772C43.692,64.827 43.735,64.876 43.785,64.93C44.07,65.207 44.321,65.492 44.536,65.774C45.314,66.709 45.598,67.3 45.416,67.594C45.105,68.098 44.43,67.841 43.08,66.704C39.059,63.32 28.02,57.39 19.357,53.961C8.59,49.699 -2.523,46.609 -13.98,44.691C-17.058,44.176 -17.102,44.025 -17.252,46.004C-17.273,46.72 -17.287,47.559 -17.287,48.495C-17.287,49.474 -17.28,50.235 -17.261,50.874C-16.967,53.702 -16.131,56.34 -14.785,58.604L-14.248,59.51C-13.915,59.976 -13.6,60.326 -13.339,60.49C-13.162,60.601 -12.725,60.837 -12.178,61.126L-6.482,63.965C-2.483,65.958 0.851,67.589 0.926,67.589C1.001,67.589 1.994,68.022 3.133,68.551C10.902,72.161 25.9,77.66 30.022,78.41C31.672,78.71 31.997,78.827 32.048,79.321C32.052,79.339 32.058,79.357 32.058,79.374C32.058,79.39 32.054,79.404 32.053,79.419C32.055,79.45 32.058,79.477 32.058,79.511C32.058,79.855 31.861,80.038 31.463,80.066C31.245,80.082 30.935,80.086 30.588,80.082C30.247,80.095 29.847,80.082 29.389,80.044C28.708,80.01 28.074,79.959 27.724,79.903C27.553,79.894 27.414,79.889 27.297,79.889C26.797,80.141 26.328,81.809 25.603,85.785C24.984,89.178 24.587,93.198 24.445,96.99C24.433,99.201 24.489,101.868 24.616,105.148C24.638,105.366 24.659,105.587 24.685,105.794C24.794,106.682 25.012,110.333 25.17,113.907C25.628,124.279 26.208,128.201 27.944,132.643C28.683,134.535 29.552,136.259 30.573,137.841C31.538,139.316 32.646,140.684 33.907,141.953C34.853,142.904 35.915,143.82 37.042,144.676C38.568,145.807 40.268,146.847 42.167,147.818C43.306,148.4 44.92,149.087 45.755,149.345C46.543,149.589 47.054,149.843 47.261,150.09C47.357,150.195 47.404,150.302 47.404,150.425C47.404,150.47 47.396,150.511 47.384,150.55C47.339,151.211 46.407,151.21 43.964,150.607C39.702,149.554 33.761,145.514 30.572,141.501L29.512,140.168C29.407,140.096 29.318,140.07 29.245,140.106L29.091,141.105C28.987,141.781 28.78,143.405 28.631,144.715C28.083,149.526 24.465,162.399 21.907,168.639C21.625,169.326 21.384,169.967 21.274,170.306C21.249,170.409 21.232,170.498 21.222,170.573C21.284,170.693 21.757,170.9 22.334,171.052C24.457,171.611 27.313,173.167 28.512,174.418C29.701,175.659 29.961,176.374 29.455,176.447C29.16,176.576 28.607,176.42 28.034,176.006C27.769,175.872 27.476,175.71 27.153,175.513C25.465,174.488 24.476,173.988 23.273,173.62C23.2,173.598 23.127,173.578 23.054,173.557C22.69,173.452 22.307,173.356 21.871,173.26C18.139,172.442 14.945,172.981 12.761,174.741C12.584,174.9 12.4,175.072 12.197,175.271C12.036,175.428 11.884,175.586 11.738,175.742C11.585,175.924 11.438,176.114 11.301,176.313C10.85,176.965 10.666,177.248 10.68,177.517C10.724,177.654 10.794,177.826 10.882,178.018C10.907,178.059 10.929,178.097 10.958,178.144C12.047,179.888 13.277,182.469 14.01,184.549C15.093,187.616 15.192,188.768 14.377,188.768C14.043,188.768 13.654,188.257 13.12,187.115C11.81,184.315 10.017,180.975 8.486,178.352C7.159,176.124 5.948,174.284 5.531,173.957C5.458,173.914 5.409,173.92 5.394,173.993C5.332,174.3 6.014,177.127 6.833,180.005C7.058,180.665 7.168,181.117 7.161,181.42C7.167,181.662 7.1,181.812 6.955,181.954C6.679,182.222 6.452,182.099 5.776,181.319C4.396,179.727 2.954,175.091 2.954,172.247C2.954,171.755 2.885,171.36 2.756,171.08C2.703,170.974 2.647,170.886 2.588,170.826C2.476,170.714 2.393,170.642 2.332,170.622C2.289,170.639 2.25,170.671 2.215,170.718C2.18,170.83 2.169,171.087 2.165,171.437C2.179,171.722 2.204,172.079 2.241,172.557C2.413,174.811 2.855,176.856 3.785,179.716C4.083,180.63 4.259,181.553 4.177,181.766C3.766,182.839 2.37,181.504 1.401,179.111C0.899,177.868 0.865,177.839 0.852,178.622C0.811,180.945 2.212,187.384 4.182,193.927C7.385,204.571 12.651,214.286 16.241,216.176C16.658,216.395 16.844,216.471 17.028,216.342C17.084,216.291 17.148,216.221 17.218,216.143C17.281,216.06 17.349,215.964 17.432,215.837C17.836,215.221 17.915,214.359 17.988,209.77C18.053,205.758 18.158,204.388 18.409,204.292C19.289,203.954 19.896,205.378 20.146,208.233C20.34,209.65 20.435,211.315 20.373,212.972L20.29,215.189L20.393,215.252L21.21,215.596C23.227,216.446 24.002,216.627 28.143,216.666C29.088,216.671 30.006,216.676 31.396,216.677C36.967,216.668 42.674,216.436 44.24,216.147C44.464,216.106 45.975,215.986 47.6,215.881C50.005,215.725 50.572,215.609 50.654,215.259C50.771,214.765 50.565,214.385 47.272,209.009C38.56,194.784 33.007,183.002 31.062,174.613C30.738,173.217 30.522,171.839 30.417,170.666C30.316,169.871 30.258,169.179 30.25,168.648C30.214,168.143 30.23,167.864 30.316,167.733C30.348,167.606 30.391,167.518 30.447,167.484C30.528,167.433 30.62,167.417 30.715,167.425C30.739,167.41 30.765,167.397 30.792,167.392C31.082,167.334 31.267,167.504 31.39,167.935C31.474,168.084 31.529,168.25 31.529,168.421C31.529,168.443 31.539,168.5 31.547,168.547C32.392,171.932 34.73,179.509 35.677,181.889C36.603,184.214 38.397,188.355 39.458,190.671C39.744,191.259 40.035,191.85 40.338,192.452C40.525,192.757 41.087,193.802 41.698,194.986C42.374,196.296 43.141,197.725 43.402,198.161C43.663,198.598 44.271,199.669 44.752,200.542C45.233,201.415 45.831,202.428 46.081,202.791C46.33,203.155 46.834,203.989 47.201,204.643C47.567,205.298 49.013,207.694 50.413,209.967C51.778,212.181 52.601,213.694 52.861,214.453C52.919,214.596 52.96,214.714 52.96,214.769C52.96,214.78 52.956,214.799 52.955,214.813C52.957,214.829 52.96,214.848 52.96,214.862C52.96,215.281 52.608,216.368 52.178,217.277C51.811,218.053 51.564,218.702 51.563,218.877C51.675,218.866 51.91,218.781 52.196,218.658C52.413,218.547 52.66,218.416 52.921,218.266C53.847,217.737 54.463,217.53 54.931,217.66C55.246,217.718 55.472,217.94 55.689,218.329C55.729,218.395 55.769,218.465 55.808,218.541L55.93,218.779C56.055,219.016 56.15,219.186 56.219,219.299C56.313,219.326 56.417,219.313 56.539,219.26L57.377,218.541C57.599,218.351 57.826,218.185 58.043,218.037C58.052,218.031 58.06,218.025 58.069,218.019C58.194,217.935 58.318,217.852 58.426,217.791C58.585,217.684 58.716,217.607 58.769,217.607C58.781,217.607 58.798,217.615 58.813,217.621C58.839,217.615 58.867,217.608 58.887,217.608C59.006,217.608 59.186,217.721 59.378,217.898C59.596,218.056 59.806,218.315 60.023,218.682C60.071,218.764 60.122,218.839 60.173,218.913C60.412,219.224 60.635,219.445 60.735,219.454C60.814,219.44 61.027,219.327 61.323,219.148C61.62,218.957 61.998,218.693 62.384,218.402C63.044,217.903 63.774,217.484 64.152,217.374C64.176,217.365 64.193,217.361 64.211,217.356C64.224,217.352 64.24,217.343 64.246,217.343L64.246,217.343C64.247,217.343 64.251,217.346 64.252,217.346C64.255,217.346 64.261,217.343 64.264,217.343C64.268,217.343 64.276,217.347 64.281,217.348C64.29,217.347 64.305,217.343 64.313,217.343C64.641,217.343 65.151,217.795 65.661,218.535C66.352,219.54 66.637,219.798 67.38,219.165C67.458,219.093 67.539,219.017 67.626,218.934C67.867,218.702 68.142,218.414 68.492,218.029C69.105,217.355 69.591,216.977 70.13,216.853C70.184,216.829 70.229,216.814 70.26,216.814C70.272,216.814 70.299,216.821 70.314,216.822C70.808,216.762 71.36,216.901 72.101,217.211C72.401,217.336 72.681,217.443 72.888,217.516C73.015,217.531 73.121,217.533 73.187,217.508C73.135,217.343 72.955,216.97 72.708,216.511C72.484,216.215 72.31,215.92 72.175,215.584L71.877,215.134L71.874,215.026L71.613,214.565L71.546,209.273C71.455,202.045 70.587,192.865 69.023,182.541C68.489,179.31 67.89,176.093 67.23,172.961C67.003,171.964 66.749,170.863 66.433,169.514C66.173,168.402 65.978,167.521 65.831,166.802C65.621,165.935 65.498,165.368 65.472,165.027C65.472,165.026 65.472,165.025 65.472,165.025C65.472,165.024 65.471,165.021 65.471,165.021C65.402,164.72 65.424,164.548 65.548,164.472C65.559,164.437 65.572,164.407 65.589,164.39C65.924,164.055 66.232,164.208 66.728,165.072C66.953,165.42 67.189,165.888 67.432,166.47C67.434,166.474 67.436,166.477 67.438,166.481C68.455,168.681 69.278,171.689 70.169,176.464C70.495,178.21 70.855,179.742 70.968,179.869C71.082,179.995 71.252,179.519 71.346,178.81C71.562,177.199 73.216,171.776 73.904,170.428C74.21,169.828 74.498,169.522 74.769,169.504C74.976,169.393 75.159,169.461 75.316,169.714C75.332,169.74 75.322,169.878 75.301,170.064C75.301,170.179 75.289,170.319 75.271,170.478C75.235,171.199 75.001,172.421 74.544,174.479C71.932,186.262 71.861,186.885 72.527,192.112C73.232,197.649 73.861,206.328 73.862,210.523C73.862,213.647 73.914,213.996 74.579,215.351C75.061,216.335 75.332,216.749 75.674,216.765C75.804,216.722 75.985,216.652 76.187,216.565C76.253,216.522 76.317,216.48 76.391,216.424C76.733,216.166 77.035,216.032 77.335,216.031L77.613,215.899L77.634,215.887L77.635,215.888L77.637,215.887L77.925,216.205C78.296,216.419 78.7,216.832 79.201,217.474C79.525,217.888 79.839,218.258 80.085,218.524C80.308,218.725 80.48,218.843 80.61,218.876C80.686,218.76 80.742,218.465 80.742,218.118C80.742,217.054 81.173,216.284 81.766,216.284C82.028,216.284 83.066,216.817 84.072,217.469C85.078,218.12 85.966,218.656 86.045,218.659C86.124,218.662 86.183,218.04 86.177,217.276C86.176,217.226 86.177,217.189 86.177,217.143C86.17,216.994 86.173,216.857 86.183,216.729C86.203,216.105 86.294,215.912 86.579,215.837C86.666,215.783 86.765,215.754 86.877,215.754C86.9,215.754 86.938,215.777 86.981,215.813C87.256,215.869 87.467,216.114 87.717,216.641C87.999,217.234 88.445,217.657 88.987,217.846C89.324,217.963 89.637,218.038 89.807,218.047C89.815,218.046 89.827,218.047 89.834,218.046C89.89,218.011 89.917,217.951 89.916,217.861C89.858,217.642 89.693,217.244 89.469,216.804C88.949,215.786 88.936,215.649 89.317,215.268C89.698,214.887 89.826,214.939 90.758,215.849C91.3,216.379 91.622,216.632 91.988,216.73L91.989,216.73C92.04,216.743 92.094,216.75 92.147,216.758C92.174,216.762 92.2,216.768 92.228,216.771C92.229,216.771 92.229,216.771 92.23,216.771C92.381,216.785 92.546,216.781 92.737,216.764L93.684,216.681L93.655,216.635L93.327,216.206L92.655,215.394C92.311,214.979 92.007,214.528 91.812,214.164C91.786,214.119 91.763,214.074 91.743,214.03C91.648,213.836 91.59,213.673 91.59,213.574C91.59,213.565 91.595,213.544 91.597,213.532C91.596,213.519 91.59,213.502 91.59,213.492C91.59,213.241 91.875,212.556 92.42,211.476C93.07,210.049 93.914,208.366 94.239,207.949C95.304,206.584 100.609,196.056 102.171,192.206C106.072,182.595 107.668,175.157 108.644,162.044C108.786,160.123 108.894,158.83 109.004,157.925C109.062,157.278 109.119,156.862 109.216,156.688C109.402,156.056 109.641,156.168 110.054,156.581C110.706,157.234 110.815,163.541 110.262,168.666C109.123,179.22 106.843,187.578 102.071,197.704C101.44,199.112 100.888,200.282 100.585,200.805C100.535,200.891 100.414,201.113 100.335,201.254C99.296,203.305 98.161,205.437 96.913,207.684C95.499,210.231 94.312,212.463 94.04,213.079C94.021,213.122 94.021,213.133 94.011,213.159C93.996,213.206 93.993,213.232 93.987,213.265C94.005,213.42 94.174,213.751 94.381,214.025C94.688,214.431 96.218,214.688 98.51,214.808C99.585,214.823 100.957,214.829 102.823,214.829C104.088,214.829 105.341,214.813 106.559,214.79C110.44,214.64 114.817,214.317 119.059,213.831C120.505,213.654 121.754,213.494 122.489,213.382C123.257,213.23 123.496,213.021 123.599,212.436C123.601,212.401 123.605,212.367 123.605,212.332C123.605,212.146 123.631,211.975 123.676,211.821C123.741,211.335 123.854,211.175 124.177,211.136C124.327,211.065 124.492,211.063 124.651,211.151C124.976,211.22 125.13,211.453 125.293,212.051C125.643,213.333 126.642,214.794 127.343,215.116C127.392,215.136 127.441,215.154 127.49,215.168C127.506,215.171 127.522,215.179 127.537,215.181C127.538,215.181 127.538,215.18 127.539,215.181C128.479,215.314 129.943,214.17 131.581,212.024C136.718,205.291 140.953,192.214 141.692,181.007C141.705,180.687 141.72,180.377 141.73,180.036L141.829,176.683C141.828,176.619 141.824,176.584 141.822,176.53C141.807,176.453 141.792,176.382 141.779,176.322L141.457,178.087C141.241,179.797 140.864,181.404 140.443,182.571C140.264,183.111 140.084,183.511 139.896,183.785C139.662,184.176 139.429,184.402 139.215,184.402C139.122,184.402 139.053,184.362 139,184.273C138.844,184.271 138.756,184.22 138.739,183.892C138.707,183.606 138.742,183.11 138.819,182.219C138.875,181.566 138.936,180.938 138.99,180.407C139.055,179.508 139.139,178.596 139.222,177.966C139.523,175.706 139.565,170.925 139.292,170.782C139.192,170.779 139.07,170.856 138.941,170.994C138.64,171.423 138.432,172.49 138.309,174.225C138.084,177.386 137.48,180.459 136.813,182.293C136.757,182.45 136.699,182.597 136.642,182.736C136.641,182.738 136.641,182.74 136.64,182.742C136.313,183.528 135.97,184.004 135.652,184.004C135.651,184.004 135.65,184.004 135.65,184.004C135.399,184.004 135.239,183.935 135.159,183.708C135.007,183.322 135.084,182.486 135.353,180.802C135.572,179.435 135.819,177.185 135.903,175.802L136.044,173.501C135.983,173.552 135.911,173.632 135.827,173.745L134.992,175.406C132.404,180.552 129.559,188.522 127.862,195.382C127.034,198.725 126.844,199.218 126.383,199.218C126.378,199.218 126.375,199.217 126.369,199.217C126.366,199.217 126.362,199.218 126.359,199.218C126.243,199.218 126.154,199.198 126.081,199.149C126.062,199.137 126.044,199.122 126.028,199.104C125.95,199.024 125.897,198.887 125.858,198.674C125.733,198.291 125.708,197.679 125.765,196.899C125.826,194.004 126.996,189.543 129.353,183.225L130.406,180.402C130.461,180.027 130.234,179.715 129.44,178.841L127.594,177.076C124.238,173.867 121.759,172.409 119.141,172.245C118.974,172.241 118.8,172.238 118.605,172.237C118.362,172.236 118.111,172.247 117.857,172.265C117.533,172.294 117.206,172.335 116.871,172.4C115.087,172.743 112.64,173.734 111.882,174.42C111.465,174.798 111.378,174.832 111.107,174.484C111.006,174.443 110.948,174.359 110.933,174.241C110.667,173.832 110.815,173.626 112.017,172.471C112.064,172.426 112.111,172.388 112.158,172.344C112.169,172.334 112.178,172.325 112.189,172.315C112.199,172.305 112.211,172.297 112.222,172.287C113.545,171.079 114.855,170.492 117.056,170.123C117.602,170.032 118.048,169.837 118.048,169.691C118.048,169.545 117.176,167.734 116.109,165.668C111.936,157.583 109.76,151.181 109.033,144.846C108.858,143.318 108.641,141.985 108.553,141.885C108.464,141.784 107.379,142.54 106.142,143.563C104.905,144.587 103.415,145.741 102.83,146.128C102.246,146.514 101.327,147.169 100.787,147.584C99.194,148.808 94.955,151.048 92.925,151.74C91.349,152.276 91.001,152.321 90.809,152.011C90.761,151.933 90.733,151.844 90.714,151.754C90.645,151.644 90.615,151.539 90.654,151.476C90.659,151.468 90.681,151.449 90.698,151.434C90.731,151.162 90.872,150.931 91.08,150.931C91.351,150.931 96.095,148.109 98.337,146.615C102.034,144.151 106.489,140.515 109.654,137.443C110.589,136.491 111.52,135.504 112.374,134.558C113.704,132.993 115.408,130.81 116.4,129.42C116.658,129.037 116.905,128.664 117.136,128.309C117.162,128.259 117.187,128.211 117.199,128.179C117.277,127.96 117.556,127.469 117.819,127.088L118.24,126.48C118.254,126.45 118.27,126.419 118.28,126.395L116.994,126.242C115.101,126.018 112.894,124.836 111.525,123.313C109.681,121.263 108.804,118.791 108.783,115.595C108.782,115.529 108.781,115.463 108.781,115.397C108.781,115.381 108.78,115.367 108.78,115.351C108.78,115.299 108.782,115.249 108.783,115.198C108.784,115.111 108.785,115.025 108.788,114.938C108.861,112.429 109.446,110.508 110.599,108.981C110.818,108.672 111.059,108.38 111.319,108.105C111.325,108.099 111.33,108.091 111.336,108.085C111.358,108.061 111.381,108.037 111.404,108.014C113.106,106.16 114.989,105.352 117.585,105.313C118.359,105.302 118.995,105.228 119.088,105.144C119.095,105.13 119.098,105.114 119.099,105.099C119.082,104.963 118.785,104.109 118.418,103.139C116.574,98.274 115.228,93.692 114.346,89.283C113.596,85.536 112.622,81.658 111.788,79.097C110.883,76.318 108.773,71.836 107.603,70.207C107.09,69.493 106.671,68.849 106.671,68.776C106.671,68.703 106.016,67.79 105.216,66.747C104.261,65.503 103.8,64.729 103.791,64.304C103.747,64.025 103.871,63.883 104.167,63.883C104.181,63.883 104.197,63.886 104.212,63.887C104.223,63.885 104.233,63.883 104.245,63.883C104.251,63.883 104.264,63.888 104.272,63.89C104.313,63.887 104.354,63.883 104.401,63.883C104.859,63.883 105.573,64.462 106.926,65.93L108.811,67.976L108.775,64.747L108.706,62.295C108.686,61.581 108.658,60.867 108.627,60.153C108.267,53.511 107.27,44.992 106.112,38.995C106.047,38.665 105.981,38.337 105.914,38.008C105.145,34.317 103.27,27.316 101.944,23.216C100.512,18.787 100.498,18.766 97.386,16.659C93.865,14.276 90.919,13.192 87.158,12.894L86.206,12.819L85.24,12.818ZM101.627,82.559L101.627,82.559C104.876,82.598 107.976,84.565 109.54,87.928C110.518,90.032 110.509,93.252 109.518,95.368C108.679,97.161 106.966,98.858 105.219,99.629C103.591,100.347 100.833,100.546 99.486,100.043C96.734,99.014 94.895,97.349 93.748,94.851C92.839,92.87 92.802,89.778 93.664,87.849C94.593,85.771 95.905,84.379 97.828,83.432C99.062,82.825 100.356,82.544 101.627,82.559L101.627,82.559ZM-44.802,83.277C-45.241,83.284 -45.501,83.315 -45.536,83.375C-45.672,83.608 -44.725,86.289 -42.375,92.326C-40.948,95.991 -40.07,98.074 -37.134,104.761C-34.996,109.631 -30.309,119.14 -28.915,121.437C-28.267,122.504 -27.737,123.447 -27.737,123.532C-27.737,123.546 -27.708,123.601 -27.687,123.646C-27.385,124.16 -27.134,124.575 -26.935,124.888C-26.874,124.982 -26.818,125.072 -26.753,125.169L-26.28,125.883L-25.847,126.52L-23.614,126.549L-21.924,126.47C-17.919,126.281 -3.884,126.671 4.514,127.206C4.826,127.226 5.003,127.241 5.278,127.259C8.373,127.417 9.222,127.505 9.527,127.824C9.586,127.866 9.63,127.911 9.661,127.961C9.875,128.301 9.621,129.455 8.58,132.855C5.913,141.575 2.847,152.289 2.175,155.155C2.077,155.618 2.049,155.863 2.077,155.941C2.233,156.04 3.324,156.456 4.612,156.904C12.899,159.788 17.863,161.696 18.976,162.425C19.031,162.461 19.091,162.518 19.153,162.583L19.497,162.744L19.714,163.434C19.83,163.663 19.936,163.908 20.017,164.15C20.26,164.883 20.539,165.483 20.637,165.483C20.735,165.483 21.262,164.203 21.808,162.639C22.796,159.812 23.672,156.743 23.531,156.603C23.491,156.562 21.202,155.445 18.446,154.119C15.689,152.794 13.383,151.658 13.321,151.595C12.975,151.25 13.317,150.042 14.116,148.787C14.616,148.001 15.105,147.18 15.204,146.962C15.402,146.521 17.159,144 20.155,139.856C21.245,138.349 22.315,136.858 22.533,136.541C22.752,136.225 23.503,135.171 24.202,134.2L25.177,132.846C25.343,132.572 25.432,132.396 25.44,132.32L24.949,130.636C23.888,126.995 23.114,121.712 23.076,117.858C23.065,116.767 22.939,113.79 22.796,111.243C22.653,108.697 22.457,105.147 22.361,103.355L22.2,100.327L22.185,100.096L20.68,99.336C19.851,98.918 17.697,97.962 15.892,97.212C1.391,91.184 -11.964,87.405 -27.473,84.941C-32.497,84.143 -41.117,83.328 -44.306,83.278C-44.49,83.275 -44.656,83.275 -44.803,83.277L-44.802,83.277ZM49.46,85.444L49.461,85.444C49.638,85.44 49.815,85.444 49.992,85.451C51.512,85.472 52.128,85.614 53.286,86.157C54.562,86.755 55.727,87.724 56.631,88.909C56.96,89.322 57.225,89.729 57.437,90.156C57.517,90.304 57.595,90.454 57.668,90.606C58.25,91.831 58.358,92.417 58.348,94.31C58.338,96.237 58.227,96.781 57.576,98.107C56.703,99.886 55.015,101.507 53.092,102.413C51.205,103.302 47.836,103.302 45.949,102.413C43.618,101.315 41.922,99.392 41.118,97.186C41.023,96.954 40.955,96.739 40.906,96.524C40.505,95.076 40.482,93.533 40.91,92.038C41.697,89.282 43.269,87.398 45.817,86.156C47.017,85.571 47.601,85.452 49.394,85.447C49.416,85.447 49.438,85.445 49.46,85.444ZM82.621,96.509L82.621,96.509C83.62,96.543 84.182,96.844 84.182,97.375C84.182,98.014 83.443,99.269 82.802,99.718C82.576,99.876 82.378,99.978 82.181,100.036C82.151,100.046 82.12,100.055 82.091,100.062C82.07,100.066 82.049,100.07 82.029,100.073C81.989,100.079 81.948,100.084 81.906,100.083C81.552,100.103 81.161,99.976 80.584,99.688C80.133,99.463 79.563,98.939 79.318,98.524C79.043,98.06 78.951,97.869 79.048,97.662C79.051,97.649 79.052,97.636 79.056,97.624C79.105,97.497 79.214,97.378 79.371,97.269C79.374,97.265 79.376,97.263 79.38,97.259C79.709,96.931 80.454,96.684 81.481,96.565C81.906,96.516 82.288,96.497 82.621,96.509L82.621,96.509ZM82.348,103.517L82.349,103.517C82.65,103.519 82.935,103.557 83.229,103.624C83.811,103.754 86.258,104.77 88.666,105.88C91.192,107.045 92.72,107.684 93.917,107.922C94.602,108.002 95.284,108.004 95.93,107.924C96.399,107.824 96.884,107.66 97.447,107.435C99.463,106.628 99.427,106.634 99.616,107.125C99.829,107.679 98.848,108.793 97.584,109.434C96.864,109.799 96.516,109.985 96.316,110.36C96.216,110.635 96.128,110.987 96.053,111.439C96.027,111.642 96.001,111.868 95.972,112.135C95.728,114.377 94.96,117.573 93.576,122.091C91.397,129.209 88.454,135.128 85.519,138.298C82.599,141.452 79.786,142.343 76.609,141.122C76.323,141.012 76.038,140.874 75.753,140.724C75.473,140.594 75.224,140.448 74.961,140.257C69.408,136.596 64.266,125.598 62.746,113.625C62.622,112.645 62.492,111.986 62.338,111.582C62.332,111.566 62.326,111.553 62.32,111.538C62.294,111.475 62.268,111.415 62.241,111.365C62.236,111.355 62.23,111.348 62.225,111.339C62.163,111.231 62.097,111.154 62.025,111.111C61.845,111.002 61.424,110.666 60.981,110.285L60.981,110.285C60.833,110.157 60.683,110.025 60.538,109.894C59.803,109.228 59.556,108.838 59.659,108.508C59.66,108.499 59.663,108.49 59.665,108.481C59.666,108.479 59.666,108.477 59.667,108.475C59.667,108.474 59.667,108.473 59.667,108.473C59.675,108.435 59.691,108.4 59.711,108.369C59.779,108.211 59.853,108.122 60.071,108.138C60.178,108.142 60.323,108.175 60.511,108.234C60.513,108.234 60.513,108.234 60.515,108.235C60.551,108.246 60.593,108.26 60.633,108.274C61.04,108.403 61.635,108.626 62.564,108.976C63.893,109.478 64.863,109.656 66.288,109.656C68.616,109.656 69.743,109.234 75.648,106.156C75.83,106.061 75.976,105.989 76.148,105.9C76.38,105.779 76.613,105.658 76.839,105.545C79.788,104.045 81.193,103.508 82.348,103.516L82.348,103.517ZM37.829,110.026C39.728,110.025 41.657,110.633 43.328,111.693C44.479,112.368 45.459,113.266 46.238,114.365C46.668,114.935 47.039,115.55 47.34,116.203C47.72,117.028 47.897,117.543 47.981,118.408C48.264,119.76 48.271,121.124 48.033,122.432C47.98,123.638 47.792,124.093 47.172,125.328C45.474,128.712 42.431,130.741 38.408,131.172C37.754,131.242 36.682,131.193 36.027,131.064C34.773,130.816 33.636,130.411 32.622,129.86C32.253,129.693 31.961,129.544 31.846,129.454C31.71,129.347 31.571,129.227 31.432,129.107C30.069,128.103 28.994,126.778 28.237,125.163C28.227,125.143 28.213,125.122 28.204,125.102C27.912,124.497 27.736,124.068 27.625,123.576C27.487,123.134 27.368,122.674 27.271,122.198C27.018,120.958 27.012,120.236 27.244,119.081C28.207,114.285 31.382,111.13 36.196,110.182C36.733,110.077 37.28,110.026 37.829,110.026L37.829,110.026Z" style="fill:rgb(255,215,62);fill-rule:nonzero;"/>
                <g id="path2510" transform="matrix(0.264583,0,0,0.264583,0,0)">
                    <path d="M445.904,406.209C442.264,406.167 438.01,406.905 434.666,408.371C428.851,410.921 423.594,416.696 421.127,423.242C418.426,430.41 418.656,441.924 421.451,449.977C421.997,451.415 422.604,452.786 423.268,454.088C426.16,459.354 431.124,464.53 435.666,466.881C439.193,468.706 447.014,468.929 450.58,467.305C455.238,465.182 459.784,445.977 458.734,432.846C457.858,421.872 454.785,409.372 452.566,407.75C451.196,406.748 448.735,406.243 445.904,406.209ZM143.188,423.334C141.517,423.335 139.853,423.489 138.219,423.811C123.57,426.693 113.911,436.294 110.98,450.887C110.275,454.4 110.293,456.597 111.062,460.369C111.358,461.82 111.718,463.217 112.137,464.564C112.475,466.059 113.012,467.368 113.9,469.209C113.928,469.268 113.969,469.333 113.998,469.393C116.302,474.308 119.575,478.339 123.723,481.393C124.145,481.759 124.568,482.125 124.982,482.449C125.333,482.724 126.22,483.177 127.344,483.686C130.429,485.36 133.888,486.594 137.703,487.348C139.696,487.741 142.957,487.889 144.949,487.676C157.188,486.365 166.446,480.192 171.613,469.896C173.5,466.137 174.071,464.753 174.234,461.082C174.957,457.102 174.936,452.954 174.074,448.84C173.82,446.208 173.282,444.641 172.125,442.131C171.21,440.144 170.079,438.273 168.771,436.537C166.4,433.193 163.421,430.463 159.918,428.408C154.834,425.184 148.966,423.334 143.188,423.336L143.188,423.334Z" style="fill:rgb(238,78,54);fill-rule:nonzero;"/>
                </g>
                <g id="path2498" transform="matrix(0.264583,0,0,0.264583,0,0)">
                    <path d="M378.367,321.451C372.665,321.443 367.194,327.043 367.168,332.904C367.168,332.966 367.17,333.016 367.17,333.076C367.211,335.414 368.378,338.277 370.01,340.471C370.055,340.527 370.102,340.581 370.147,340.637C370.428,340.931 370.712,341.228 371.049,341.564C371.675,342.191 372.293,342.733 372.906,343.209C376.186,345.061 381.961,344.729 385.236,342.396C389.321,339.488 390.823,333.952 388.824,329.17C387.164,325.197 382.097,321.459 378.367,321.451L378.367,321.451ZM188.467,331.482C188.158,331.485 187.859,331.507 187.561,331.525C179.316,332.38 174.847,340.585 178.572,348.123C179.558,349.904 180.978,351.531 182.58,352.764C186.547,355.347 191.947,355.109 196.078,351.66C198.879,349.322 199.498,348.037 199.916,343.684C199.984,342.979 200.032,342.384 200.066,341.84C199.908,340.089 199.545,338.549 198.967,337.238C198.476,336.596 197.815,335.895 196.891,334.971C195.453,333.533 194.415,332.67 193.307,332.152C191.903,331.695 190.295,331.464 188.467,331.482L188.467,331.482Z" style="fill:white;fill-rule:nonzero;"/>
                </g>
                <path id="path2720" d="M78.865,116.782C74.48,116.824 70.605,119.398 66.989,123.267C69.151,130.288 72.323,135.94 75.661,138.367C75.9,138.559 76.125,138.704 76.378,138.834C76.637,138.984 76.896,139.122 77.155,139.232C80.035,140.453 82.586,139.562 85.233,136.409C87.506,133.701 89.783,128.983 91.63,123.23C86.882,118.626 82.681,116.746 78.865,116.782Z" style="fill:rgb(238,114,119);fill-rule:nonzero;"/>
            </g>
        </g>
    </g>
</svg>
